<?xml version="1.0" encoding="utf-8"?>
<!-- Generator: Adobe Illustrator 12.0.0, SVG Export Plug-In . SVG Version: 6.00 Build 51448)  -->
<!DOCTYPE svg PUBLIC "-//W3C//DTD SVG 1.1//EN" "http://www.w3.org/Graphics/SVG/1.1/DTD/svg11.dtd" [
	<!ENTITY ns_svg "http://www.w3.org/2000/svg">
	<!ENTITY ns_xlink "http://www.w3.org/1999/xlink">
]>
<svg  version="1.1" id="Layer_1" xmlns="&ns_svg;" xmlns:xlink="&ns_xlink;" width="434.295" height="499.072"
	 viewBox="0 0 434.295 499.072" overflow="visible" enable-background="new 0 0 434.295 499.072" xml:space="preserve">
<polygon fill="#7FC6B7" stroke="#000000" stroke-width="4" points="217.868,372.608 217.868,249.828 324.256,311.218 "/>
<polygon fill="#7FC6B7" stroke="#000000" stroke-width="4" points="217.531,126.464 217.531,249.244 111.142,187.854 "/>
<polygon fill="#69ACD6" stroke="#000000" stroke-width="4" points="110.985,311.109 217.374,249.719 217.373,372.5 "/>
<polygon fill="#7FC6B7" stroke="#000000" stroke-width="4" points="217.937,249.683 324.324,188.292 324.323,311.073 "/>
<polygon fill="#7FC6B7" stroke="#000000" stroke-width="4" points="324.31,188.089 217.921,249.479 217.921,126.699 "/>
<polygon fill="#69ACD6" stroke="#000000" stroke-width="4" points="217.358,249.515 110.97,310.905 110.97,188.125 "/>
<g>
	<path fill="#FFFFFF" stroke="#CCCCCC" d="M59.288,445.019l-3.741-12.724H40.986l-3.646,12.724h-3.504l12.928-42.967h3.173
		l12.856,42.967H59.288z M48.938,409.571c-0.111-0.379-0.225-0.818-0.343-1.318c-0.119-0.498-0.217-1.067-0.296-1.706h-0.095
		c-0.095,0.639-0.201,1.208-0.319,1.706c-0.119,0.5-0.233,0.939-0.343,1.318l-5.494,19.111h12.432L48.938,409.571z"/>
	<path fill="#FFFFFF" stroke="#CCCCCC" d="M66.824,438.725c0.568,0.54,1.196,1.023,1.883,1.453c0.688,0.431,1.391,0.789,2.109,1.08
		c0.718,0.289,1.44,0.509,2.167,0.658c0.727,0.15,1.422,0.225,2.085,0.225c2.574,0,4.501-0.627,5.78-1.884s1.919-3.063,1.919-5.418
		c0-1.14-0.15-2.133-0.45-2.984c-0.3-0.849-0.766-1.643-1.397-2.383c-0.632-0.739-1.429-1.474-2.392-2.204
		c-0.963-0.729-2.1-1.554-3.41-2.474c-1.453-0.999-2.696-1.943-3.73-2.834c-1.034-0.889-1.878-1.797-2.534-2.728
		c-0.655-0.929-1.137-1.933-1.445-3.013c-0.308-1.081-0.461-2.31-0.461-3.688c0-1.739,0.292-3.298,0.876-4.679
		c0.584-1.379,1.373-2.553,2.368-3.522c0.994-0.97,2.159-1.715,3.493-2.234c1.333-0.52,2.759-0.779,4.274-0.779
		c2.668,0,4.902,0.468,6.702,1.403v4.396c-2.005-1.458-4.359-2.187-7.06-2.187c-1.01,0-1.962,0.155-2.854,0.465
		c-0.893,0.312-1.674,0.767-2.346,1.368c-0.671,0.601-1.2,1.347-1.587,2.238c-0.387,0.891-0.581,1.928-0.581,3.11
		c0,1.119,0.13,2.085,0.391,2.895c0.26,0.809,0.679,1.573,1.255,2.294c0.576,0.719,1.333,1.435,2.273,2.143
		c0.939,0.71,2.088,1.524,3.445,2.444c1.42,0.959,2.66,1.894,3.717,2.803c1.058,0.909,1.938,1.859,2.641,2.85
		c0.702,0.989,1.227,2.038,1.574,3.147c0.348,1.11,0.521,2.344,0.521,3.703c0,1.88-0.277,3.533-0.83,4.963s-1.326,2.612-2.32,3.554
		c-0.995,0.939-2.178,1.649-3.552,2.129c-1.374,0.479-2.881,0.719-4.523,0.719c-0.537,0-1.176-0.057-1.918-0.166
		c-0.742-0.11-1.492-0.271-2.25-0.481s-1.48-0.461-2.167-0.753c-0.687-0.29-1.243-0.605-1.669-0.947V438.725z"/>
	<path fill="#FFFFFF" stroke="#CCCCCC" d="M117.088,427.752c0,12.002-4.167,18.003-12.501,18.003
		c-7.939,0-11.908-5.78-11.908-17.343v-26.359h3.159v26.007c0,4.715,0.748,8.24,2.246,10.577s3.815,3.505,6.953,3.505
		c5.928,0,8.892-4.553,8.892-13.662v-26.427h3.159V427.752z"/>
	<path fill="#FFFFFF" stroke="#CCCCCC" d="M143.979,445.019l-5.118-12.318c-0.506-1.219-0.996-2.238-1.47-3.058
		c-0.474-0.818-0.963-1.473-1.469-1.963c-0.506-0.489-1.046-0.839-1.624-1.048c-0.576-0.211-1.22-0.315-1.931-0.315h-3.744v18.702
		h-3.159v-42.967h9.786c1.279,0,2.515,0.24,3.708,0.719c1.192,0.479,2.255,1.189,3.187,2.127c0.932,0.939,1.678,2.118,2.239,3.536
		c0.561,1.418,0.841,3.066,0.841,4.943c0,1.519-0.182,2.917-0.544,4.195c-0.363,1.278-0.879,2.412-1.549,3.401
		s-1.482,1.827-2.436,2.516c-0.954,0.689-2.03,1.203-3.229,1.543v0.121c0.458,0.239,0.876,0.549,1.255,0.928
		c0.379,0.381,0.746,0.839,1.102,1.379c0.355,0.539,0.706,1.158,1.054,1.858c0.348,0.699,0.71,1.498,1.09,2.396l5.708,13.304
		H143.979z M128.624,405.697v17.008h5.639c1.137,0,2.18-0.21,3.128-0.629c0.947-0.421,1.757-1.021,2.428-1.801
		c0.671-0.779,1.193-1.72,1.564-2.819c0.371-1.101,0.557-2.34,0.557-3.721c0-2.5-0.636-4.463-1.908-5.893s-3.108-2.146-5.508-2.146
		H128.624z"/>
	<path fill="#FFFFFF" stroke="#CCCCCC" d="M153.442,445.019v-42.967h16.576v3.645H156.6v15.761h12.432v3.613H156.6v16.336h14.175
		v3.612H153.442z"/>
	<path fill="#FFFFFF" stroke="#CCCCCC" d="M178.752,445.627c-0.632,0-1.169-0.28-1.612-0.84c-0.442-0.559-0.663-1.238-0.663-2.039
		c0-0.818,0.217-1.509,0.651-2.068c0.435-0.56,0.976-0.84,1.624-0.84c0.316,0,0.612,0.076,0.889,0.226
		c0.276,0.15,0.517,0.351,0.723,0.6c0.206,0.251,0.371,0.555,0.498,0.915c0.127,0.359,0.19,0.749,0.19,1.168
		c0,0.4-0.063,0.774-0.19,1.124c-0.126,0.35-0.292,0.655-0.498,0.915s-0.447,0.466-0.723,0.615
		C179.364,445.552,179.068,445.627,178.752,445.627z"/>
	<path fill="#FFFFFF" stroke="#CCCCCC" d="M211.741,445.019l-18.85-34.486c-0.237-0.44-0.471-0.89-0.7-1.349
		c-0.229-0.461-0.414-0.909-0.556-1.35h-0.118c0.032,0.36,0.059,0.859,0.083,1.498c0.023,0.641,0.035,1.439,0.035,2.398v33.288
		h-3.158v-42.967h3.482l18.552,34.067c0.285,0.54,0.541,1.044,0.771,1.514c0.228,0.469,0.438,0.903,0.627,1.304h0.118
		c-0.063-0.66-0.11-1.399-0.142-2.218c-0.032-0.819-0.047-1.728-0.047-2.727v-31.94h3.17v42.967H211.741z"/>
	<path fill="#FFFFFF" stroke="#CCCCCC" d="M223.822,445.019v-42.967h16.576v3.645H226.98v15.761h12.432v3.613H226.98v16.336h14.176
		v3.612H223.822z"/>
	<path fill="#FFFFFF" stroke="#CCCCCC" d="M258.044,405.697v39.322h-3.159v-39.322h-9.778v-3.645h22.741v3.645H258.044z"/>
	<path fill="#FFFFFF" stroke="#CCCCCC" d="M303.635,445.019h-3.291l-7.271-31.851c-0.174-0.76-0.312-1.487-0.414-2.188
		c-0.103-0.699-0.162-1.378-0.178-2.038h-0.094c-0.063,1.16-0.293,2.549-0.688,4.165l-7.53,31.911h-3.291l-10.017-42.967h3.505
		l7.482,33.707c0.174,0.739,0.312,1.445,0.414,2.115c0.104,0.669,0.186,1.312,0.249,1.932h0.095
		c0.095-0.899,0.355-2.248,0.782-4.047l7.956-33.707h2.485l7.459,33.828c0.143,0.679,0.269,1.345,0.379,1.994
		c0.111,0.649,0.197,1.282,0.261,1.901h0.095c0.031-0.399,0.095-0.85,0.189-1.349c0.095-0.5,0.205-1.06,0.332-1.678l7.435-34.697
		h3.434L303.635,445.019z"/>
	<path fill="#FFFFFF" stroke="#CCCCCC" d="M332.562,445.755c-2.447,0-4.648-0.564-6.605-1.692c-1.958-1.129-3.618-2.671-4.983-4.629
		c-1.366-1.959-2.415-4.261-3.149-6.908c-0.734-2.646-1.101-5.489-1.101-8.525c0-3.354,0.366-6.427,1.101-9.213
		c0.734-2.787,1.804-5.174,3.209-7.161c1.404-1.989,3.124-3.536,5.161-4.645c2.036-1.109,4.355-1.664,6.959-1.664
		c2.399,0,4.555,0.544,6.465,1.633s3.536,2.598,4.878,4.525c1.342,1.929,2.371,4.21,3.09,6.846c0.717,2.638,1.076,5.504,1.076,8.601
		c0,3.256-0.351,6.277-1.053,9.063c-0.703,2.788-1.736,5.199-3.103,7.237c-1.364,2.039-3.046,3.637-5.042,4.794
		C337.466,445.175,335.166,445.755,332.562,445.755z M332.823,404.93c-2.053,0-3.873,0.494-5.46,1.484
		c-1.587,0.988-2.925,2.328-4.015,4.018s-1.915,3.668-2.476,5.937c-0.561,2.27-0.849,4.684-0.864,7.241
		c-0.016,2.439,0.232,4.772,0.746,7.003c0.514,2.229,1.286,4.198,2.321,5.906c1.033,1.71,2.341,3.074,3.921,4.094
		c1.579,1.02,3.426,1.528,5.542,1.528s3.976-0.464,5.578-1.395c1.604-0.929,2.941-2.218,4.016-3.867
		c1.073-1.649,1.883-3.613,2.428-5.893c0.544-2.278,0.817-4.768,0.817-7.467c0-2.519-0.241-4.908-0.723-7.166
		c-0.481-2.259-1.231-4.232-2.251-5.922c-1.019-1.689-2.317-3.029-3.896-4.018C336.928,405.425,335.033,404.93,332.823,404.93z"/>
	<path fill="#FFFFFF" stroke="#CCCCCC" d="M373.974,445.019l-5.118-12.318c-0.506-1.219-0.995-2.238-1.469-3.058
		c-0.475-0.818-0.964-1.473-1.47-1.963c-0.506-0.489-1.047-0.839-1.623-1.048c-0.576-0.211-1.221-0.315-1.931-0.315h-3.745v18.702
		h-3.158v-42.967h9.785c1.279,0,2.516,0.24,3.709,0.719c1.191,0.479,2.254,1.189,3.186,2.127c0.932,0.939,1.678,2.118,2.238,3.536
		s0.842,3.066,0.842,4.943c0,1.519-0.181,2.917-0.544,4.195c-0.362,1.278-0.879,2.412-1.55,3.401
		c-0.669,0.989-1.481,1.827-2.436,2.516c-0.953,0.689-2.029,1.203-3.229,1.543v0.121c0.459,0.239,0.877,0.549,1.257,0.928
		c0.379,0.381,0.744,0.839,1.1,1.379c0.355,0.539,0.707,1.158,1.055,1.858c0.348,0.699,0.711,1.498,1.09,2.396l5.708,13.304H373.974
		z M358.618,405.697v17.008h5.641c1.137,0,2.179-0.21,3.126-0.629c0.948-0.421,1.758-1.021,2.43-1.801
		c0.671-0.779,1.191-1.72,1.563-2.819c0.372-1.101,0.558-2.34,0.558-3.721c0-2.5-0.636-4.463-1.907-5.893s-3.107-2.146-5.509-2.146
		H358.618z"/>
	<path fill="#FFFFFF" stroke="#CCCCCC" d="M401.24,445.019l-13.815-20.104c-0.379-0.579-0.623-0.989-0.734-1.229h-0.095v21.333
		h-3.157v-42.967h3.157v20.225h0.095c0.111-0.22,0.229-0.43,0.355-0.629c0.127-0.2,0.262-0.41,0.403-0.63l13.232-18.966h4.007
		l-14.757,20.733l15.717,22.233H401.24z"/>
</g>
</svg>
