<?xml version="1.0" encoding="utf-8"?>
<!-- Generator: Adobe Illustrator 12.0.0, SVG Export Plug-In . SVG Version: 6.00 Build 51448)  -->
<!DOCTYPE svg PUBLIC "-//W3C//DTD SVG 1.1//EN" "http://www.w3.org/Graphics/SVG/1.1/DTD/svg11.dtd" [
	<!ENTITY ns_svg "http://www.w3.org/2000/svg">
	<!ENTITY ns_xlink "http://www.w3.org/1999/xlink">
]>
<svg  version="1.1" id="Layer_1" xmlns="&ns_svg;" xmlns:xlink="&ns_xlink;" width="434.295" height="499.072"
	 viewBox="0 0 434.295 499.072" overflow="visible" enable-background="new 0 0 434.295 499.072" xml:space="preserve">
<polygon fill="#7FC6B7" stroke="#000000" stroke-width="4" points="217.868,372.608 217.868,249.828 324.256,311.218 "/>
<polygon fill="#7FC6B7" stroke="#000000" stroke-width="4" points="217.531,126.464 217.531,249.244 111.142,187.854 "/>
<polygon fill="#69ACD6" stroke="#000000" stroke-width="4" points="110.985,311.109 217.374,249.719 217.373,372.5 "/>
<polygon fill="#7FC6B7" stroke="#000000" stroke-width="4" points="217.937,249.683 324.324,188.292 324.323,311.073 "/>
<polygon fill="#7FC6B7" stroke="#000000" stroke-width="4" points="324.31,188.089 217.921,249.479 217.921,126.699 "/>
<polygon fill="#69ACD6" stroke="#000000" stroke-width="4" points="217.358,249.515 110.97,310.905 110.97,188.125 "/>
<g>
	<path fill="#FFFFFF" stroke="#CCCCCC" d="M20.314,446.036l-4.626-12.438H-2.322l-4.509,12.438h-4.334l15.988-42h3.924l15.9,42
		H20.314z M7.513,411.385c-0.137-0.371-0.278-0.801-0.424-1.289c-0.146-0.487-0.269-1.043-0.366-1.668H6.606
		c-0.117,0.625-0.249,1.181-0.396,1.668c-0.146,0.488-0.288,0.918-0.424,1.289l-6.794,18.682h15.375L7.513,411.385z"/>
	<path fill="#FFFFFF" stroke="#CCCCCC" d="M29.634,439.884c0.703,0.527,1.479,1.001,2.329,1.421s1.719,0.771,2.608,1.055
		s1.782,0.498,2.681,0.645s1.758,0.22,2.579,0.22c3.184,0,5.567-0.614,7.149-1.843s2.374-2.993,2.374-5.295
		c0-1.114-0.186-2.086-0.557-2.917c-0.371-0.83-0.947-1.606-1.728-2.33c-0.781-0.723-1.767-1.44-2.958-2.154
		c-1.191-0.713-2.597-1.519-4.217-2.418c-1.796-0.977-3.334-1.899-4.613-2.77c-1.279-0.869-2.323-1.758-3.133-2.667
		c-0.811-0.908-1.406-1.89-1.787-2.945s-0.571-2.257-0.571-3.605c0-1.7,0.361-3.224,1.083-4.572
		c0.722-1.349,1.698-2.496,2.929-3.444c1.23-0.947,2.67-1.676,4.32-2.184c1.649-0.508,3.412-0.762,5.286-0.762
		c3.299,0,6.062,0.457,8.288,1.371v4.299c-2.481-1.426-5.392-2.139-8.731-2.139c-1.25,0-2.427,0.152-3.531,0.455
		c-1.104,0.305-2.071,0.75-2.901,1.337s-1.484,1.317-1.963,2.188s-0.718,1.885-0.718,3.04c0,1.095,0.161,2.038,0.483,2.829
		s0.839,1.539,1.552,2.242c0.712,0.703,1.649,1.402,2.812,2.096c1.162,0.693,2.582,1.489,4.261,2.389
		c1.757,0.938,3.289,1.852,4.597,2.74s2.396,1.816,3.266,2.784c0.869,0.968,1.518,1.993,1.947,3.077
		c0.43,1.085,0.645,2.291,0.645,3.62c0,1.837-0.342,3.454-1.025,4.851c-0.684,1.397-1.64,2.555-2.87,3.474s-2.694,1.612-4.393,2.081
		s-3.563,0.703-5.594,0.703c-0.664,0-1.455-0.055-2.372-0.162c-0.918-0.107-1.845-0.265-2.782-0.471
		c-0.938-0.206-1.831-0.451-2.68-0.735s-1.538-0.593-2.064-0.927V439.884z"/>
	<path fill="#FFFFFF" stroke="#CCCCCC" d="M91.796,429.157c0,11.732-5.153,17.598-15.46,17.598c-9.818,0-14.728-5.65-14.728-16.953
		v-25.766h3.906v25.422c0,4.608,0.926,8.055,2.778,10.339s4.719,3.427,8.599,3.427c7.332,0,10.998-4.451,10.998-13.355v-25.832
		h3.906V429.157z"/>
	<path fill="#FFFFFF" stroke="#CCCCCC" d="M125.054,446.036l-6.33-12.041c-0.625-1.191-1.231-2.188-1.817-2.988
		s-1.192-1.44-1.817-1.919c-0.625-0.479-1.295-0.82-2.008-1.025s-1.509-0.308-2.388-0.308h-4.63v18.281h-3.906v-42h12.102
		c1.582,0,3.111,0.234,4.585,0.703s2.789,1.162,3.941,2.079c1.152,0.918,2.076,2.069,2.769,3.456s1.041,2.998,1.041,4.832
		c0,1.484-0.225,2.852-0.673,4.102c-0.449,1.249-1.087,2.357-1.916,3.324s-1.833,1.786-3.012,2.459
		c-1.18,0.674-2.511,1.177-3.993,1.509v0.117c0.566,0.234,1.083,0.537,1.552,0.908s0.923,0.819,1.362,1.347s0.874,1.133,1.303,1.816
		s0.879,1.465,1.348,2.344l7.06,13.004H125.054z M106.064,407.598v16.625h6.974c1.406,0,2.696-0.205,3.868-0.615
		c1.172-0.41,2.173-0.997,3.003-1.76c0.83-0.762,1.475-1.681,1.934-2.756s0.689-2.287,0.689-3.637c0-2.443-0.787-4.363-2.359-5.761
		c-1.573-1.397-3.844-2.097-6.813-2.097H106.064z"/>
	<path fill="#FFFFFF" stroke="#CCCCCC" d="M136.757,446.036v-42h20.5v3.563h-16.594v15.406h15.375v3.531h-15.375v15.969h17.531
		v3.531H136.757z"/>
	<path fill="#FFFFFF" stroke="#CCCCCC" d="M168.059,446.63c-0.782,0-1.446-0.273-1.993-0.82s-0.82-1.211-0.82-1.993
		c0-0.801,0.269-1.476,0.806-2.022s1.207-0.82,2.008-0.82c0.391,0,0.757,0.073,1.099,0.22s0.64,0.343,0.894,0.587
		s0.459,0.542,0.616,0.894s0.234,0.732,0.234,1.143c0,0.391-0.078,0.757-0.234,1.099s-0.362,0.641-0.616,0.895
		s-0.552,0.454-0.894,0.601S168.449,446.63,168.059,446.63z"/>
	<path fill="#FFFFFF" stroke="#CCCCCC" d="M208.859,446.036l-23.313-33.711c-0.293-0.43-0.582-0.869-0.865-1.318
		s-0.512-0.889-0.688-1.318h-0.146c0.039,0.352,0.073,0.84,0.103,1.465s0.044,1.406,0.044,2.344v32.539h-3.906v-42h4.307
		l22.943,33.301c0.352,0.527,0.669,1.021,0.952,1.479s0.542,0.884,0.776,1.274h0.146c-0.078-0.645-0.137-1.367-0.176-2.168
		s-0.059-1.688-0.059-2.665v-31.222h3.922v42H208.859z"/>
	<path fill="#FFFFFF" stroke="#CCCCCC" d="M223.798,446.036v-42h20.5v3.563h-16.594v15.406h15.375v3.531h-15.375v15.969h17.531
		v3.531H223.798z"/>
	<path fill="#FFFFFF" stroke="#CCCCCC" d="M266.122,407.598v38.438h-3.906v-38.438h-12.094v-3.563h28.125v3.563H266.122z"/>
	<path fill="#FFFFFF" stroke="#CCCCCC" d="M322.506,446.036h-4.07l-8.991-31.134c-0.215-0.742-0.385-1.454-0.512-2.138
		s-0.2-1.348-0.22-1.992h-0.117c-0.078,1.133-0.361,2.49-0.85,4.071l-9.313,31.192h-4.07l-12.388-42h4.334l9.254,32.949
		c0.215,0.723,0.386,1.412,0.513,2.066s0.229,1.283,0.308,1.889h0.117c0.117-0.879,0.439-2.197,0.967-3.955l9.84-32.949h3.074
		l9.225,33.066c0.176,0.664,0.332,1.314,0.469,1.949s0.244,1.254,0.322,1.859h0.117c0.039-0.391,0.117-0.83,0.234-1.318
		s0.254-1.035,0.41-1.641l9.195-33.916h4.246L322.506,446.036z"/>
	<path fill="#FFFFFF" stroke="#CCCCCC" d="M358.281,446.755c-3.026,0-5.749-0.552-8.169-1.654c-2.422-1.104-4.476-2.611-6.164-4.525
		s-2.986-4.164-3.895-6.752c-0.908-2.587-1.361-5.365-1.361-8.333c0-3.28,0.453-6.282,1.361-9.007c0.908-2.724,2.23-5.057,3.968-7
		s3.864-3.456,6.384-4.54c2.518-1.084,5.387-1.626,8.607-1.626c2.967,0,5.632,0.532,7.994,1.597s4.373,2.538,6.032,4.423
		s2.933,4.115,3.821,6.692c0.888,2.577,1.332,5.38,1.332,8.406c0,3.183-0.435,6.137-1.303,8.86
		c-0.869,2.725-2.147,5.082-3.836,7.074s-3.768,3.554-6.236,4.686C364.347,446.188,361.502,446.755,358.281,446.755z
		 M358.604,406.848c-2.539,0-4.79,0.484-6.753,1.451s-3.617,2.276-4.965,3.928s-2.368,3.586-3.062,5.803
		c-0.693,2.219-1.05,4.578-1.069,7.079c-0.02,2.384,0.288,4.665,0.923,6.845c0.635,2.178,1.591,4.104,2.87,5.773
		c1.279,1.672,2.896,3.005,4.85,4.002c1.953,0.996,4.237,1.494,6.854,1.494s4.917-0.454,6.899-1.363
		c1.982-0.908,3.637-2.168,4.965-3.781c1.328-1.611,2.329-3.531,3.003-5.759s1.011-4.661,1.011-7.299
		c0-2.462-0.298-4.798-0.894-7.005c-0.596-2.209-1.523-4.138-2.783-5.789s-2.866-2.961-4.819-3.928S361.337,406.848,358.604,406.848
		z"/>
	<path fill="#FFFFFF" stroke="#CCCCCC" d="M409.497,446.036l-6.33-12.041c-0.625-1.191-1.23-2.188-1.816-2.988
		s-1.192-1.44-1.817-1.919c-0.626-0.479-1.295-0.82-2.008-1.025s-1.509-0.308-2.388-0.308h-4.631v18.281h-3.906v-42h12.102
		c1.582,0,3.111,0.234,4.586,0.703s2.788,1.162,3.94,2.079c1.152,0.918,2.075,2.069,2.769,3.456s1.041,2.998,1.041,4.832
		c0,1.484-0.225,2.852-0.673,4.102c-0.448,1.249-1.087,2.357-1.916,3.324s-1.833,1.786-3.013,2.459
		c-1.18,0.674-2.51,1.177-3.992,1.509v0.117c0.566,0.234,1.084,0.537,1.553,0.908s0.922,0.819,1.361,1.347s0.874,1.133,1.304,1.816
		s0.879,1.465,1.348,2.344l7.06,13.004H409.497z M390.507,407.598v16.625h6.975c1.406,0,2.695-0.205,3.867-0.615
		s2.174-0.997,3.004-1.76c0.83-0.762,1.475-1.681,1.934-2.756s0.689-2.287,0.689-3.637c0-2.443-0.787-4.363-2.359-5.761
		s-3.844-2.097-6.813-2.097H390.507z"/>
	<path fill="#FFFFFF" stroke="#CCCCCC" d="M443.218,446.036l-17.086-19.652c-0.469-0.566-0.771-0.967-0.908-1.201h-0.117v20.854
		H421.2v-42h3.906v19.77h0.117c0.137-0.215,0.283-0.42,0.439-0.615s0.323-0.4,0.499-0.615l16.363-18.539h4.956l-18.25,20.268
		l19.438,21.732H443.218z"/>
</g>
</svg>
